<?xml version="1.0" standalone="no"?>
<!DOCTYPE svg PUBLIC "-//W3C//DTD SVG 20010904//EN"
 "http://www.w3.org/TR/2001/REC-SVG-20010904/DTD/svg10.dtd">
<svg version="1.0" xmlns="http://www.w3.org/2000/svg"
 width="1200.000000pt" height="1213.000000pt" viewBox="0 0 1200.000000 1213.000000"
 preserveAspectRatio="xMidYMid meet">
<metadata>
Created by potrace 1.16, written by Peter Selinger 2001-2019
</metadata>
<g transform="translate(0.000000,1213.000000) scale(0.100000,-0.100000)"
fill="#000000" stroke="none">
<path d="M5595 12124 c-22 -2 -96 -8 -165 -14 -850 -72 -1723 -358 -2490 -818
-439 -262 -777 -528 -1160 -912 -497 -496 -845 -979 -1150 -1595 -292 -590
-475 -1178 -570 -1826 -70 -481 -79 -1103 -24 -1584 159 -1385 769 -2650 1749
-3630 915 -913 2082 -1498 3363 -1685 365 -53 882 -74 1242 -51 1280 84 2438
552 3455 1397 177 147 573 545 730 734 735 883 1207 1934 1364 3035 49 344 56
452 56 880 0 405 -5 510 -41 785 -228 1774 -1199 3333 -2689 4316 -715 471
-1546 789 -2390 913 -309 46 -418 53 -835 56 -223 1 -423 1 -445 -1z m940
-169 c843 -91 1578 -322 2284 -717 707 -396 1353 -963 1839 -1613 962 -1287
1358 -2890 1108 -4485 -304 -1938 -1567 -3622 -3328 -4441 -601 -279 -1193
-441 -1888 -516 -203 -22 -853 -25 -1045 -5 -669 69 -1210 205 -1770 444
-1897 810 -3245 2591 -3519 4649 -43 321 -51 456 -50 824 0 256 5 397 17 525
77 773 275 1458 617 2135 411 815 1004 1523 1735 2072 860 647 1876 1039 2935
1133 63 6 135 12 160 14 118 10 763 -3 905 -19z"/>
<path d="M5520 11640 c-152 -21 -262 -93 -311 -205 -16 -36 -24 -76 -27 -146
-10 -217 68 -388 207 -453 41 -18 63 -21 191 -20 127 0 152 3 204 23 110 44
186 143 186 243 l0 49 -47 -6 c-27 -4 -79 -10 -116 -13 -69 -7 -69 -7 -82 -45
-17 -51 -41 -75 -86 -88 -48 -15 -100 -5 -127 24 -83 88 -108 361 -41 433 30
32 87 48 135 40 40 -8 94 -54 94 -80 0 -14 11 -16 83 -10 45 4 101 10 123 13
l41 6 -12 47 c-21 85 -77 144 -163 174 -53 18 -173 25 -252 14z"/>
<path d="M6110 11623 c0 -16 -11 -194 -25 -397 -13 -204 -23 -371 -22 -372 1
-2 55 -6 119 -10 l116 -7 7 148 8 147 71 -6 c39 -3 110 -8 159 -12 l87 -6 0
85 0 84 -151 8 -151 7 4 83 c1 46 5 85 8 87 3 2 78 -1 167 -6 l162 -11 5 29
c3 16 6 55 6 87 0 58 -1 59 -27 59 -16 0 -122 7 -238 15 -115 8 -231 15 -257
15 -46 0 -48 -1 -48 -27z"/>
<path d="M6796 11529 c-9 -39 -16 -77 -16 -84 0 -7 43 -21 113 -35 61 -12 115
-26 119 -29 6 -5 -80 -441 -116 -596 -5 -19 5 -22 106 -43 61 -13 111 -21 113
-20 1 2 30 141 65 309 l64 306 119 -25 c92 -20 120 -23 126 -13 9 14 35 151
30 155 -5 5 -681 146 -695 146 -7 0 -19 -32 -28 -71z"/>
<path d="M4885 11536 c-147 -35 -193 -92 -182 -222 l7 -74 -28 -6 c-57 -13
-62 -16 -61 -37 2 -45 25 -122 36 -120 7 2 29 5 51 9 l40 6 30 -128 c17 -71
38 -162 47 -202 11 -46 21 -72 28 -69 7 2 56 15 110 27 53 12 97 26 97 31 0 5
-20 96 -45 201 -25 106 -45 193 -45 194 0 2 25 8 55 15 43 10 55 16 55 31 0
25 -21 111 -29 120 -4 4 -31 1 -61 -7 -30 -8 -56 -15 -57 -15 -2 0 -3 22 -3
50 0 56 14 70 75 70 30 0 35 3 32 18 -3 9 -11 41 -17 70 -12 51 -12 52 -48 51
-21 0 -60 -6 -87 -13z"/>
<path d="M7570 11029 c-157 -171 -285 -315 -285 -321 0 -12 176 -86 205 -87 8
-1 37 24 65 55 l50 55 137 -51 137 -52 3 -80 3 -80 114 -44 c62 -24 116 -44
120 -44 3 0 4 194 1 431 l-5 431 -110 43 c-60 23 -119 45 -130 48 -16 4 -74
-53 -305 -304z m328 -71 l-11 -146 -66 25 c-36 14 -74 28 -83 30 -10 3 -18 7
-18 9 0 7 183 234 187 231 1 -2 -3 -69 -9 -149z"/>
<path d="M4025 11271 l-120 -49 -7 -268 c-4 -148 -7 -344 -5 -435 l2 -166 110
42 110 43 -2 79 -2 78 144 57 c80 31 145 53 145 49 1 -3 23 -30 49 -59 l49
-53 121 47 c84 32 118 50 113 59 -11 19 -576 625 -582 625 -3 -1 -59 -23 -125
-49z m164 -458 c-46 -18 -84 -33 -85 -33 -1 0 -5 48 -8 108 -4 59 -9 129 -12
156 l-5 50 96 -124 96 -124 -82 -33z"/>
<path d="M8208 10407 c-34 -65 -36 -73 -22 -84 25 -18 175 -95 178 -91 2 1 20
36 41 76 32 61 36 75 24 83 -31 20 -168 89 -176 89 -4 0 -25 -33 -45 -73z"/>
<path d="M3680 10413 c-47 -25 -87 -47 -89 -49 -4 -4 79 -154 85 -154 7 0 146
77 168 93 18 13 18 17 -20 85 -21 40 -43 72 -49 72 -5 0 -48 -21 -95 -47z"/>
<path d="M2272 9968 c-19 -19 -15 -40 28 -154 l40 -106 -43 -49 c-23 -27 -45
-49 -49 -49 -9 0 -9 -4 -17 135 l-6 109 -32 10 c-41 11 -63 -5 -63 -45 0 -16
18 -77 40 -135 22 -59 40 -112 40 -118 -1 -6 -21 -32 -45 -59 l-44 -47 -10 52
c-5 29 -13 88 -17 131 -5 58 -11 80 -24 87 -30 16 -90 -8 -90 -37 0 -7 25 -72
55 -144 l54 -130 -47 -60 -47 -59 -14 33 c-8 19 -14 73 -15 134 -2 108 -8 124
-52 137 -24 7 -64 -25 -64 -52 0 -10 25 -80 55 -155 l56 -138 -28 -39 c-16
-22 -31 -40 -35 -40 -13 0 -47 128 -54 205 -6 68 -9 76 -30 81 -33 8 -52 -1
-66 -31 -10 -23 -4 -41 54 -164 l66 -139 -45 -63 c-24 -35 -48 -68 -53 -73
-13 -13 -60 149 -62 216 -1 47 -6 62 -22 74 -41 28 -86 6 -86 -42 0 -14 30
-88 66 -164 l66 -140 -37 -60 c-20 -33 -40 -62 -45 -65 -18 -11 -65 154 -72
255 -3 32 -6 35 -39 38 -32 3 -38 0 -49 -28 -12 -29 -9 -39 57 -178 l70 -147
-28 -45 -28 -45 -27 60 c-14 33 -34 93 -45 133 -10 40 -21 77 -24 82 -9 14
-59 12 -73 -2 -22 -22 -12 -50 64 -187 l75 -136 -28 -52 c-15 -29 -31 -53 -34
-53 -13 0 -62 126 -73 189 -14 81 -20 91 -56 91 -35 0 -65 -38 -55 -69 3 -12
38 -77 76 -145 38 -68 69 -129 69 -135 0 -16 -43 -101 -51 -101 -11 0 -76 140
-94 202 -13 48 -21 59 -42 64 -35 9 -57 -7 -61 -44 -3 -26 12 -53 82 -152 47
-67 86 -125 86 -130 0 -4 -13 -36 -30 -71 l-29 -63 -36 78 c-20 43 -42 102
-48 132 -9 43 -16 55 -38 64 -21 9 -32 8 -48 -2 -45 -28 -39 -51 53 -188 47
-72 86 -137 86 -146 0 -23 -20 -55 -30 -49 -16 10 -74 118 -96 180 -26 71 -59
92 -94 60 -34 -31 -19 -65 80 -186 49 -61 90 -117 90 -124 0 -7 -7 -30 -16
-51 l-16 -39 -24 30 c-13 17 -43 68 -66 115 -49 99 -65 120 -88 120 -22 0 -50
-31 -50 -57 0 -11 45 -72 104 -139 l103 -118 -20 -59 -19 -59 -40 60 c-21 33
-50 91 -63 128 -18 53 -29 70 -45 72 -29 5 -70 -24 -70 -49 0 -11 44 -75 98
-141 l99 -121 -21 -69 -21 -69 -28 33 c-15 18 -48 72 -73 121 -25 49 -53 91
-61 94 -8 3 -27 2 -42 -3 -19 -7 -27 -17 -29 -41 -3 -35 14 -59 142 -190 l69
-72 -13 -56 c-7 -31 -17 -58 -21 -61 -11 -7 -82 91 -118 164 -24 48 -36 62
-54 62 -28 0 -41 -9 -56 -38 -15 -29 -16 -29 112 -166 l99 -105 -18 -76 c-10
-41 -21 -75 -25 -75 -15 0 -78 86 -106 145 -21 44 -36 62 -57 70 -24 8 -31 6
-47 -14 -10 -13 -19 -30 -19 -39 0 -8 49 -65 110 -126 l109 -112 -16 -88 c-19
-102 -14 -104 -91 28 -25 43 -56 83 -68 88 -29 13 -62 -5 -70 -38 -6 -23 6
-39 98 -132 l104 -107 -15 -120 -16 -119 -32 40 c-18 23 -44 65 -58 95 -40 83
-41 84 -63 87 -34 5 -62 -16 -62 -46 0 -21 24 -50 104 -132 l105 -105 -6 -102
c-3 -57 -10 -103 -14 -103 -9 0 -92 116 -121 169 -24 43 -61 43 -84 -1 l-17
-32 112 -105 112 -106 -1 -108 0 -109 -24 29 c-13 15 -44 60 -69 99 -32 51
-53 73 -72 78 -36 9 -55 -9 -55 -53 0 -34 6 -41 110 -125 l110 -88 0 -73 c0
-40 3 -82 6 -92 3 -10 -33 22 -79 70 -78 80 -89 88 -119 85 -25 -2 -35 -9 -42
-29 -5 -15 -7 -33 -4 -41 3 -8 60 -47 126 -87 l120 -73 7 -86 c4 -48 9 -96 12
-106 8 -30 -85 40 -122 92 -36 49 -65 61 -100 38 -26 -17 -32 -49 -16 -76 5
-8 63 -42 128 -75 l118 -60 13 -99 c7 -54 11 -101 8 -103 -10 -10 -97 60 -126
102 -24 35 -37 45 -59 45 -48 0 -74 -46 -52 -89 6 -10 65 -43 133 -75 l124
-57 15 -85 c8 -46 14 -84 12 -84 -14 0 -109 56 -136 80 -57 50 -121 39 -115
-20 3 -32 4 -33 132 -76 71 -24 131 -46 133 -48 4 -3 43 -162 43 -173 0 -10
-116 60 -163 99 -59 50 -92 48 -103 -8 -9 -50 8 -63 156 -114 69 -24 126 -44
128 -45 6 -5 40 -135 35 -135 -15 0 -126 66 -167 100 -27 22 -54 40 -61 40
-23 0 -56 -51 -49 -74 3 -12 9 -25 13 -29 4 -4 70 -29 147 -56 l139 -48 27
-77 c15 -42 24 -76 19 -76 -16 0 -147 99 -191 144 -46 48 -73 56 -105 32 -14
-10 -17 -21 -12 -51 3 -20 7 -39 9 -40 2 -2 79 -43 172 -92 l169 -90 40 -102
39 -102 97 -79 c52 -43 97 -77 99 -75 2 2 -5 20 -16 42 -11 21 -41 89 -66 151
l-47 114 37 66 c46 85 94 144 139 172 26 16 35 29 35 49 0 43 -21 63 -60 59
-34 -3 -37 -7 -102 -137 -37 -73 -69 -136 -72 -138 -2 -2 -21 46 -41 107 l-37
111 49 66 c26 36 71 82 98 101 59 40 69 55 61 88 -7 27 -46 50 -69 41 -8 -3
-45 -55 -82 -116 -38 -61 -71 -111 -75 -111 -4 0 -16 35 -28 77 l-21 78 31 52
c18 29 65 88 105 132 75 81 86 109 60 145 -9 12 -23 17 -42 14 -26 -3 -36 -17
-100 -141 l-72 -139 -23 90 c-13 55 -19 100 -15 114 4 13 52 67 107 120 83 81
99 102 100 128 1 36 -14 50 -54 50 -23 0 -35 -15 -99 -120 -40 -66 -74 -118
-76 -116 -2 2 -10 40 -19 84 -19 101 -18 103 112 208 100 82 112 104 74 139
-35 32 -67 10 -142 -94 -39 -53 -70 -87 -72 -80 -3 8 -10 52 -16 99 l-12 85
62 57 c55 51 106 82 163 102 14 5 18 15 15 48 -3 41 -4 43 -38 46 -33 2 -40
-3 -123 -99 -85 -98 -87 -100 -87 -67 0 18 -3 49 -6 69 -5 31 -1 41 26 73 18
20 77 66 131 102 62 41 99 71 99 82 0 31 -29 62 -58 62 -22 0 -45 -20 -117
-102 l-90 -103 -3 89 c-2 68 1 92 12 105 8 9 65 48 125 86 61 39 113 78 117
88 8 25 -22 67 -47 67 -13 0 -60 -36 -115 -86 l-94 -86 0 99 0 99 32 24 c18
14 78 48 133 76 101 52 112 64 101 110 -5 20 -13 24 -44 24 -33 0 -48 -10
-129 -86 l-93 -85 6 98 c6 93 7 99 36 124 40 36 120 79 193 104 52 18 60 24
63 48 2 16 -2 35 -9 43 -24 29 -60 15 -165 -67 l-104 -80 6 48 c16 130 24 166
41 179 31 23 146 81 188 94 46 15 55 25 55 62 0 35 -31 54 -62 37 -13 -7 -60
-41 -105 -76 -46 -35 -83 -60 -83 -55 0 13 30 172 36 193 5 18 93 50 189 69
66 13 85 29 85 72 0 28 -23 48 -57 48 -10 -1 -58 -25 -108 -55 -49 -30 -90
-53 -91 -52 -1 1 6 36 15 77 16 69 20 76 53 93 20 10 76 27 125 39 48 12 94
26 101 31 18 14 15 51 -6 70 -30 27 -62 20 -147 -33 -44 -26 -81 -47 -83 -45
-2 1 5 33 15 70 21 80 26 83 188 125 l100 25 3 37 c3 34 0 38 -25 44 -22 6
-47 -3 -125 -45 -54 -28 -98 -48 -98 -44 0 4 12 42 26 85 25 75 26 77 72 93
26 9 82 19 125 22 72 5 79 8 88 30 6 17 5 33 -3 51 -21 43 -65 41 -153 -8 -41
-22 -75 -39 -75 -36 0 2 9 29 21 59 21 54 21 55 77 66 30 6 85 11 122 11 72 0
90 10 90 49 -1 63 -35 68 -154 21 -43 -17 -80 -29 -82 -27 -3 2 5 27 17 55 20
48 25 53 72 67 28 8 79 15 113 15 83 0 94 5 94 44 0 63 -45 72 -150 31 -35
-14 -65 -23 -67 -21 -3 2 7 27 21 54 30 60 58 72 181 81 l80 6 3 37 c3 33 -1
40 -23 50 -22 10 -36 7 -100 -20 -41 -17 -75 -29 -75 -27 0 3 12 29 27 60 24
48 33 56 72 70 26 9 83 19 129 22 67 5 85 10 93 25 18 33 7 62 -27 71 -26 8
-45 3 -113 -27 -45 -20 -84 -36 -86 -36 -2 0 13 29 32 64 22 39 44 67 57 70
12 3 69 6 128 6 98 0 108 2 118 21 9 16 8 26 -5 45 -9 14 -23 28 -31 31 -12 4
-123 -23 -182 -45 -25 -9 63 120 88 130 17 6 54 6 117 -3 104 -14 123 -8 123
42 0 48 -31 55 -134 31 -47 -10 -86 -18 -86 -16 0 3 15 27 33 55 l32 51 75 -7
c41 -3 91 -8 112 -11 31 -5 39 -2 54 20 14 22 15 31 5 53 -11 25 -14 25 -69
19 -31 -3 -75 -9 -97 -13 l-39 -6 36 49 c32 43 41 49 76 52 22 2 66 -4 97 -12
78 -20 105 -9 105 45 0 43 -18 50 -101 39 -41 -5 -78 -10 -82 -10 -8 0 7 23
52 79 l19 24 111 -17 c124 -20 141 -16 141 35 0 47 -32 55 -135 37 l-84 -15
17 22 c9 12 30 36 45 55 l28 33 73 -6 c41 -4 86 -11 101 -17 56 -21 100 20 70
66 -18 27 -65 32 -144 13 -24 -5 -46 -8 -48 -5 -3 2 14 25 37 50 50 54 60 55
178 25 101 -25 122 -18 122 41 0 57 -20 65 -122 46 -45 -9 -83 -14 -85 -13 -1
2 17 22 41 46 42 42 45 43 109 42 36 0 77 -3 91 -7 65 -16 105 67 50 102 -24
16 -29 16 -76 1 l-51 -16 27 28 c30 32 33 61 8 84 -39 35 -65 22 -160 -78 -67
-71 -91 -91 -96 -79 -3 9 -6 55 -6 103 0 97 -7 111 -55 111 -17 0 -36 -5 -43
-12z"/>
<path d="M9550 9945 c-9 -11 -9 -28 3 -81 l16 -67 -72 71 c-80 79 -113 91
-141 50 -23 -32 -20 -43 16 -77 l33 -30 -50 15 c-61 18 -92 12 -107 -22 -17
-37 17 -80 63 -77 19 0 66 2 104 3 l70 2 37 -43 c20 -24 36 -44 35 -45 -1 -1
-39 5 -85 13 -78 14 -84 14 -102 -2 -27 -25 -27 -81 1 -95 15 -9 41 -7 108 9
127 30 131 29 181 -31 40 -46 42 -51 20 -45 -58 16 -160 20 -175 7 -21 -17
-19 -53 4 -74 18 -16 24 -16 95 -2 124 26 138 24 186 -34 47 -56 47 -56 -60
-39 -60 10 -72 10 -95 -5 -30 -20 -32 -46 -5 -71 19 -17 24 -17 113 -2 51 10
100 17 109 17 9 0 36 -23 59 -51 l43 -52 -47 7 c-144 19 -134 20 -147 -4 -6
-12 -9 -33 -6 -46 10 -37 34 -44 101 -28 33 7 78 14 101 14 37 0 43 -4 73 -46
18 -25 30 -48 27 -51 -2 -2 -39 1 -81 8 -86 15 -108 8 -113 -33 -5 -39 24 -61
67 -54 20 4 68 9 107 13 l72 6 36 -54 c19 -29 34 -54 33 -55 -1 -2 -40 7 -85
18 -66 16 -88 18 -108 9 -31 -14 -40 -36 -26 -67 13 -28 42 -31 137 -13 93 17
114 9 158 -62 21 -34 37 -62 35 -64 -2 -1 -41 9 -87 22 -94 28 -126 23 -137
-22 -12 -47 7 -55 128 -55 60 0 118 -4 128 -10 16 -9 84 -119 77 -126 -1 -1
-39 13 -84 33 -91 39 -126 39 -144 -1 -8 -17 -8 -29 0 -45 10 -17 21 -21 66
-21 63 0 149 -17 187 -36 25 -13 86 -110 75 -120 -2 -2 -36 11 -76 28 -68 30
-74 31 -99 17 -19 -10 -28 -24 -30 -46 -4 -37 0 -38 108 -47 114 -10 132 -19
163 -81 15 -30 25 -55 23 -55 -2 0 -34 11 -70 25 -67 25 -111 31 -132 17 -18
-12 -26 -50 -14 -72 9 -17 20 -20 84 -20 40 0 95 -7 122 -15 46 -13 50 -18 70
-67 12 -29 19 -54 15 -55 -3 -2 -46 12 -95 31 -97 36 -123 36 -137 -1 -21 -55
2 -73 90 -73 37 0 92 -5 122 -11 l55 -11 21 -60 22 -59 -75 40 c-42 23 -88 41
-104 41 -34 0 -60 -23 -60 -54 0 -41 20 -53 100 -59 41 -3 96 -13 121 -22 39
-13 48 -21 57 -53 7 -20 19 -59 27 -85 l14 -48 -96 50 c-105 56 -136 62 -153
30 -20 -37 -5 -67 38 -74 53 -9 172 -44 204 -61 21 -11 32 -29 48 -81 11 -36
19 -67 17 -69 -2 -2 -40 19 -86 46 -84 51 -108 58 -142 40 -23 -13 -26 -72 -4
-90 8 -6 56 -20 107 -30 143 -28 143 -28 162 -104 25 -102 26 -102 -74 -41
-50 30 -98 55 -106 55 -34 0 -54 -20 -54 -54 0 -42 11 -50 80 -66 78 -17 179
-50 185 -61 6 -9 45 -202 42 -206 -1 -1 -46 32 -100 73 -54 41 -102 74 -106
74 -5 0 -19 -9 -32 -19 -20 -16 -22 -23 -14 -47 8 -23 22 -32 71 -49 61 -21
132 -59 172 -92 17 -14 24 -36 33 -100 17 -126 18 -126 -95 -39 -108 83 -136
91 -163 50 -25 -38 -10 -53 104 -104 55 -25 116 -55 136 -68 33 -21 36 -27 42
-85 4 -34 5 -80 3 -101 l-3 -40 -86 82 c-48 45 -95 82 -106 82 -27 0 -53 -31
-53 -63 0 -22 10 -31 63 -57 34 -18 92 -55 130 -83 l67 -51 0 -89 c0 -104 9
-105 -111 10 -42 40 -86 73 -96 73 -27 0 -53 -31 -53 -63 0 -22 9 -31 53 -53
53 -27 143 -87 186 -124 23 -19 23 -23 15 -104 l-9 -85 -88 100 c-92 104 -117
118 -150 81 -35 -38 -22 -64 56 -112 39 -24 96 -66 125 -93 51 -49 52 -51 52
-106 0 -31 -4 -62 -8 -68 -5 -9 -34 18 -91 82 -68 79 -87 95 -111 95 -19 0
-33 -7 -40 -21 -22 -39 -8 -61 59 -95 35 -18 90 -58 121 -89 l57 -56 -14 -96
c-7 -53 -14 -97 -16 -99 -1 -2 -36 42 -77 97 -44 58 -84 102 -98 105 -30 8
-52 -12 -52 -46 0 -23 15 -41 78 -93 42 -36 91 -80 109 -99 l32 -33 -17 -90
-17 -90 -64 105 c-80 131 -88 140 -121 140 -33 0 -50 -17 -50 -51 0 -22 20
-47 91 -116 138 -134 134 -123 107 -233 -26 -107 -23 -108 -100 45 -28 55 -57
108 -66 118 -32 36 -92 11 -92 -40 0 -18 21 -47 69 -97 38 -39 87 -97 109
-128 l40 -58 -24 -82 c-13 -44 -25 -82 -27 -84 -1 -1 -34 49 -72 112 -39 63
-78 117 -88 120 -29 9 -67 -22 -67 -55 0 -24 14 -42 71 -93 40 -35 87 -82 105
-106 l33 -43 -36 -105 c-20 -57 -39 -104 -43 -104 -4 0 -33 55 -64 123 -62
130 -75 147 -116 147 -34 0 -50 -17 -50 -53 0 -22 14 -41 59 -83 59 -54 145
-183 143 -215 0 -8 -27 -78 -60 -155 -33 -76 -58 -141 -56 -143 2 -2 44 29 93
69 94 76 96 79 151 225 l23 61 145 74 c201 104 202 105 202 138 0 34 -25 72
-48 72 -10 0 -43 -24 -73 -54 -46 -44 -131 -107 -184 -138 -6 -4 1 29 15 72
l25 79 135 47 c147 51 170 65 170 101 0 24 -32 63 -51 63 -6 0 -32 -17 -58
-39 -52 -43 -159 -106 -167 -98 -3 3 3 33 13 68 l19 63 134 47 c74 26 140 56
148 66 13 19 9 58 -10 80 -18 22 -45 14 -92 -26 -38 -33 -144 -101 -158 -101
-3 0 4 40 16 88 l21 88 129 45 c101 35 131 49 139 67 15 32 -2 56 -41 60 -24
2 -44 -6 -84 -36 -56 -42 -117 -76 -124 -69 -2 2 3 40 12 84 l16 81 119 56
c65 31 123 65 129 75 16 31 12 69 -9 81 -38 20 -65 11 -93 -30 -24 -34 -112
-109 -129 -110 -3 0 1 47 10 105 l16 105 121 59 c94 45 122 64 127 82 10 35 9
37 -13 59 -34 34 -64 26 -104 -28 -31 -43 -100 -102 -119 -102 -7 0 0 133 9
177 3 15 38 43 115 89 116 71 132 88 127 132 -3 23 -8 27 -39 30 -32 3 -42 -4
-118 -80 l-82 -83 6 115 7 115 119 120 c101 102 119 125 119 151 0 38 -20 56
-57 52 -23 -2 -35 -16 -69 -76 -22 -40 -56 -94 -75 -120 l-34 -47 -6 65 c-4
36 -7 97 -8 135 l-1 70 105 105 c113 113 125 137 80 166 -39 26 -66 7 -114
-78 -22 -40 -49 -84 -59 -97 l-19 -23 -7 73 -6 72 110 112 c60 62 110 118 110
126 0 26 -31 59 -55 59 -31 0 -45 -15 -94 -102 -48 -87 -80 -130 -81 -108 0 8
-5 44 -10 80 l-9 65 99 100 c83 83 100 106 100 131 0 22 -7 34 -24 43 -39 21
-62 5 -105 -72 -22 -40 -49 -85 -59 -101 -23 -33 -23 -33 -42 77 l-13 68 107
108 c90 92 106 113 106 140 0 62 -89 67 -104 5 -9 -36 -47 -99 -90 -148 l-33
-39 -17 73 c-9 40 -16 78 -16 85 0 7 47 63 105 125 58 62 105 120 105 129 0
32 -30 62 -58 59 -20 -2 -33 -14 -50 -48 -33 -62 -112 -180 -121 -180 -4 0
-15 26 -24 57 l-16 57 100 108 c96 102 120 142 111 180 -4 22 -49 35 -71 21
-9 -5 -38 -51 -66 -101 -27 -51 -60 -105 -71 -120 l-22 -27 -17 60 c-10 33
-20 65 -22 71 -2 6 41 66 97 134 55 69 100 130 100 137 0 24 -40 54 -68 51
-22 -3 -29 -12 -48 -66 -22 -63 -84 -174 -101 -179 -5 -2 -15 15 -22 38 -7 22
-15 47 -17 54 -3 7 42 66 100 131 112 127 124 152 81 180 -38 25 -58 10 -99
-73 -42 -86 -95 -173 -105 -173 -3 0 -14 21 -23 46 l-16 47 94 115 c77 95 94
122 94 149 0 45 -37 64 -75 39 -14 -9 -25 -24 -25 -34 0 -33 -94 -212 -112
-212 -3 0 -11 14 -17 31 -10 28 -6 38 74 157 93 139 102 170 60 198 -41 27
-70 7 -85 -58 -7 -29 -29 -88 -48 -132 l-36 -78 -33 66 -33 66 90 127 c49 69
90 137 90 149 0 27 -25 54 -49 54 -30 0 -46 -23 -69 -95 -12 -38 -37 -96 -55
-128 l-33 -58 -17 36 -17 35 82 146 c69 125 80 150 72 172 -13 36 -37 48 -71
36 -19 -6 -29 -17 -31 -34 -6 -66 -27 -141 -54 -194 l-30 -59 -39 67 c-21 37
-39 72 -39 78 0 6 32 68 71 140 89 161 92 202 14 196 -27 -3 -30 -7 -42 -65
-7 -34 -27 -98 -44 -143 l-32 -81 -28 48 c-32 54 -37 33 55 226 52 109 55 120
44 145 -10 20 -22 28 -47 30 -42 4 -51 -8 -51 -71 0 -46 -28 -144 -55 -196
-13 -25 -13 -25 -53 37 l-40 63 41 117 c22 64 47 120 53 125 47 28 57 72 24
102 -42 38 -113 -16 -89 -68 10 -21 7 -38 -16 -104 -16 -43 -32 -89 -37 -102
-8 -22 -12 -19 -59 48 l-50 72 60 128 c34 71 61 138 61 150 0 53 -35 75 -81
51 -15 -9 -19 -22 -19 -66 0 -56 -22 -161 -42 -198 -10 -18 -12 -18 -39 15
-16 19 -29 40 -29 46 0 7 25 76 56 152 46 115 54 143 45 160 -23 42 -70 48
-98 12 -8 -10 -13 -53 -13 -111 -1 -52 -7 -113 -13 -134 l-12 -40 -44 55 c-24
30 -45 59 -48 65 -2 6 19 63 47 128 65 152 65 174 -1 191 -38 10 -50 -14 -61
-116 -5 -51 -12 -107 -16 -127 l-7 -35 -46 54 -47 54 45 120 c36 97 43 126 36
150 -9 33 -38 43 -71 26 -16 -9 -20 -25 -25 -113 -3 -57 -8 -111 -12 -121 -7
-17 -8 -17 -27 0 -11 10 -38 39 -59 64 l-38 46 11 96 c8 76 8 100 -2 112 -16
19 -74 20 -90 0z"/>
<path d="M6275 9318 c-59 -21 -76 -46 -74 -110 2 -64 -8 -84 -51 -93 -20 -4
-43 1 -79 19 -28 15 -77 33 -108 41 -87 23 -106 33 -135 75 -22 32 -38 42 -85
56 -48 14 -58 14 -62 3 -9 -31 -97 -107 -136 -118 -58 -16 -75 -14 -162 18
-212 78 -314 74 -413 -15 -56 -51 -75 -108 -75 -224 1 -85 4 -100 29 -147 49
-90 149 -140 260 -130 33 2 115 23 181 46 66 23 133 41 150 41 48 0 91 -33
110 -85 20 -50 19 -186 -5 -709 -5 -120 -7 -223 -3 -229 4 -7 76 -8 222 -3
119 3 337 9 484 13 229 5 272 9 289 23 l21 16 -41 137 c-60 197 -67 251 -48
326 18 70 54 130 100 164 208 158 563 109 666 -93 51 -101 46 -203 -20 -349
-45 -99 -50 -145 -21 -161 12 -6 128 -10 305 -10 260 0 310 4 277 24 -4 3 -14
27 -21 53 -17 65 -53 126 -94 160 -53 45 -69 79 -82 173 -15 108 -34 151 -91
198 -36 30 -47 48 -63 102 -11 36 -53 122 -94 193 -41 70 -89 153 -107 185
l-32 57 40 -38 c55 -53 74 -47 93 26 11 46 12 67 2 113 -18 88 -30 100 -105
108 -36 3 -87 13 -113 21 -71 21 -118 18 -181 -11 -47 -23 -64 -26 -112 -21
-105 11 -293 66 -400 117 -108 52 -153 60 -216 38z"/>
<path d="M6822 8434 c-73 -19 -103 -36 -144 -82 -71 -79 -74 -156 -12 -362 49
-164 52 -197 23 -234 -43 -54 -87 -66 -254 -66 -82 0 -295 -5 -472 -12 l-323
-12 0 -398 0 -399 25 -24 c13 -14 33 -25 45 -25 11 0 89 21 173 46 l152 47 83
-11 c196 -26 295 -144 295 -352 0 -167 -54 -260 -191 -327 -70 -35 -83 -38
-156 -37 -67 1 -103 8 -206 42 -69 23 -140 42 -157 42 -52 0 -61 -25 -72 -197
-6 -83 -15 -163 -21 -177 -8 -23 -4 -40 27 -107 31 -68 34 -83 24 -105 -18
-41 -13 -74 25 -143 40 -73 47 -120 21 -149 -9 -10 -17 -22 -17 -26 0 -4 204
-6 453 -4 492 3 487 3 487 58 0 15 -13 60 -30 98 -80 190 -79 322 6 421 114
133 332 174 531 99 79 -29 163 -113 188 -187 26 -79 17 -164 -29 -276 -61
-147 -64 -161 -38 -188 22 -22 24 -22 360 -22 l337 0 3 67 c3 66 -19 135 -48
153 -21 13 -32 60 -39 170 -5 67 -14 123 -24 141 -15 29 -14 34 16 110 46 114
73 155 182 279 149 170 250 269 369 363 181 143 250 247 377 563 66 166 80
232 56 264 -15 19 -16 19 -114 -13 -81 -26 -280 -73 -419 -99 -28 -5 -38 1
-89 50 -49 48 -55 58 -46 76 24 44 6 70 -121 182 l-78 69 -343 0 c-194 0 -357
4 -378 10 -49 14 -89 59 -96 108 -4 32 2 57 35 128 22 49 45 107 51 129 40
145 -28 269 -173 314 -79 24 -175 27 -254 5z"/>
<path d="M3126 7683 c4 -21 8 -68 8 -105 1 -37 6 -71 11 -76 6 -4 40 -32 77
-61 90 -70 152 -141 183 -209 38 -83 55 -114 79 -140 32 -36 299 -230 339
-247 56 -23 124 -18 217 16 72 26 95 30 155 26 38 -2 96 -10 127 -17 63 -15
70 -13 298 75 74 30 114 39 181 43 111 6 138 -7 179 -88 44 -88 60 -96 171
-80 86 11 91 11 137 -12 28 -13 54 -36 65 -56 17 -29 18 -40 7 -120 -6 -48
-22 -119 -36 -158 -36 -106 -33 -139 24 -223 49 -74 192 -249 203 -250 4 -1 9
50 11 112 5 138 21 180 82 208 23 10 51 19 64 19 13 0 85 -20 161 -45 157 -51
219 -57 304 -25 56 21 113 72 143 130 15 28 19 57 19 150 0 108 -2 118 -29
167 -34 62 -87 100 -158 113 -95 18 -121 14 -345 -57 -74 -24 -87 -25 -124
-14 -53 16 -94 56 -108 107 -7 25 -11 182 -11 441 l0 401 -462 4 c-511 5 -508
5 -508 -53 0 -18 13 -58 30 -90 35 -70 60 -170 60 -243 0 -78 -58 -189 -122
-234 -199 -141 -525 -93 -633 93 -57 97 -53 192 16 352 46 109 48 150 9 170
-19 10 -125 13 -429 13 l-403 0 8 -37z"/>
<path d="M8726 5435 c-8 -19 -35 -56 -59 -82 -25 -27 -54 -66 -65 -88 -41 -82
-112 -130 -239 -164 -80 -22 -123 -114 -88 -190 20 -45 17 -107 -9 -164 l-16
-37 227 2 227 3 36 125 c45 153 57 181 105 245 l39 50 -12 103 c-16 144 -57
232 -108 232 -18 0 -28 -9 -38 -35z"/>
<path d="M3314 4119 c-98 -48 -134 -125 -99 -215 35 -91 100 -137 170 -120
l25 6 -25 51 c-14 27 -31 49 -38 48 -26 -3 -37 2 -52 25 -13 19 -14 29 -6 45
13 23 82 65 123 75 47 11 88 -50 56 -82 -9 -9 -7 -21 7 -52 10 -23 25 -44 32
-49 13 -7 -30 -44 -156 -137 -15 -12 -13 -17 45 -93 2 -2 26 15 55 38 58 46
78 50 104 21 17 -19 17 -21 -19 -60 -48 -54 -50 -103 -5 -155 52 -59 105 -78
151 -54 20 11 19 12 -13 45 -21 22 -39 32 -50 29 -21 -7 -50 21 -43 40 4 8 9
15 12 15 4 0 32 -26 64 -57 l57 -56 20 24 c12 13 26 41 33 63 10 33 9 43 -8
74 -25 47 -77 82 -123 82 l-36 0 25 19 c24 19 24 20 6 40 -11 12 -28 21 -40
21 -15 0 -17 3 -8 12 8 8 4 20 -19 49 l-30 38 21 33 c31 52 23 114 -26 187
-48 72 -127 91 -210 50z"/>
<path d="M8880 4099 c-11 -20 -21 -21 -62 -4 -16 6 -18 1 -18 -49 0 -34 4 -56
11 -56 7 0 9 -10 5 -25 -5 -21 -2 -27 20 -37 22 -10 28 -10 39 5 11 16 16 15
69 -8 70 -31 97 -31 124 -2 19 20 42 67 42 86 0 11 -54 34 -57 24 -12 -33 -20
-35 -72 -13 -56 25 -55 23 -41 50 9 16 5 22 -19 35 -29 14 -31 14 -41 -6z"/>
<path d="M8766 3879 c-104 -82 -50 -239 82 -239 34 0 47 6 77 37 44 45 61 102
43 141 -8 15 -21 26 -30 26 -10 -1 -14 4 -11 12 7 18 -48 44 -95 44 -25 0 -49
-8 -66 -21z"/>
<path d="M8631 3706 c-33 -34 -34 -37 -27 -93 l7 -58 -63 63 c-35 34 -68 62
-74 62 -6 0 -23 -14 -39 -30 l-29 -30 31 -32 31 -31 -21 -33 c-12 -19 -27 -34
-32 -34 -6 0 -26 -13 -45 -28 l-33 -28 73 -92 c41 -51 77 -92 81 -92 12 0 69
51 69 62 0 5 -16 29 -35 52 -40 49 -44 75 -15 101 16 15 18 21 8 34 -6 9 21
-15 60 -54 l72 -70 38 38 37 38 -39 35 c-43 37 -41 39 35 23 l51 -11 39 38
c21 20 36 40 34 44 -2 4 -38 13 -79 19 l-75 12 -6 47 c-11 84 -15 88 -54 48z"/>
<path d="M3793 3483 c-20 -8 -15 -25 15 -51 21 -18 22 -21 5 -13 -59 29 -123
-5 -123 -65 0 -38 21 -68 60 -84 17 -7 47 -28 67 -46 21 -19 40 -33 44 -32 17
7 119 155 119 174 0 31 -40 84 -80 105 -33 18 -80 23 -107 12z"/>
<path d="M4056 3375 c-4 -12 -10 -14 -26 -5 -16 9 -22 6 -37 -16 -16 -25 -16
-27 1 -39 16 -13 15 -17 -18 -69 -20 -31 -36 -67 -36 -79 0 -24 38 -66 77 -86
30 -15 30 -15 46 16 13 24 13 28 -4 42 -17 15 -17 18 8 59 23 39 29 42 54 37
24 -6 31 -2 41 19 10 23 9 28 -7 40 -18 13 -18 15 -2 39 9 15 17 28 17 30 0 3
-18 7 -39 11 -22 3 -46 8 -54 12 -8 3 -17 -2 -21 -11z"/>
<path d="M8242 3373 c-68 -33 -118 -124 -77 -139 8 -3 29 5 47 17 l33 24 -27
-34 c-17 -19 -28 -45 -28 -62 0 -36 39 -79 72 -79 31 0 89 37 95 60 3 11 9 17
14 14 10 -6 79 33 79 44 0 9 -102 156 -114 164 -18 12 -59 9 -94 -9z"/>
<path d="M7983 3327 c-37 -18 -63 -38 -63 -47 0 -8 9 -51 19 -95 11 -44 18
-81 17 -82 -1 -2 -19 19 -39 45 -20 26 -48 60 -61 75 l-23 29 -72 -36 -71 -36
75 -150 c41 -83 80 -150 86 -150 13 0 69 29 69 35 0 3 -23 51 -51 108 -28 56
-47 98 -42 92 17 -18 147 -170 149 -173 5 -8 84 40 84 51 0 10 -19 115 -35
197 -3 14 18 -19 45 -72 28 -54 55 -98 61 -98 21 0 70 32 66 43 -21 52 -141
297 -146 296 -3 0 -34 -14 -68 -32z"/>
<path d="M4131 3171 c-30 -55 -54 -103 -54 -107 1 -4 19 -18 41 -31 l40 -24
61 108 60 108 -37 22 c-20 13 -42 23 -47 23 -6 0 -35 -45 -64 -99z"/>
<path d="M4246 3100 c-27 -61 -47 -111 -45 -113 9 -6 80 -37 85 -37 2 0 20 34
39 75 26 58 38 75 55 75 33 0 33 -23 1 -95 -17 -37 -31 -73 -31 -79 0 -6 19
-19 41 -28 l41 -17 39 83 c21 46 39 94 39 106 0 36 -52 80 -95 80 -21 0 -34 4
-30 10 5 8 -63 50 -82 50 -5 0 -30 -50 -57 -110z"/>
<path d="M4558 3055 c-60 -34 -80 -131 -38 -187 21 -28 21 -30 4 -24 -50 21
-54 20 -54 -17 0 -44 37 -78 103 -97 59 -16 111 -6 135 25 24 31 95 222 89
239 -6 16 -81 39 -85 26 -2 -5 -13 2 -25 16 -28 32 -90 41 -129 19z"/>
<path d="M5033 3023 c-32 -6 -80 -60 -99 -109 -20 -53 -15 -140 10 -179 42
-64 191 -91 254 -47 43 31 71 88 78 159 5 50 3 63 -18 93 -38 57 -151 99 -225
83z m112 -98 c29 -29 32 -67 9 -125 -19 -47 -43 -63 -80 -54 -59 15 -65 118
-9 178 30 32 49 33 80 1z"/>
<path d="M7471 3003 c-13 -9 -36 -17 -50 -19 -41 -3 -83 -23 -78 -37 2 -6 19
-57 37 -112 18 -55 34 -102 36 -103 3 -5 77 18 86 27 4 3 -3 40 -16 81 -26 81
-24 103 8 98 16 -2 27 -19 47 -78 15 -41 30 -75 35 -75 21 1 74 17 79 24 8 14
-53 185 -71 198 -25 18 -85 16 -113 -4z"/>
<path d="M7205 2931 c-45 -11 -73 -29 -91 -56 -24 -37 -12 -58 28 -50 l33 7
-25 -18 c-34 -25 -40 -34 -40 -71 0 -44 30 -73 76 -73 19 0 45 5 57 12 12 6
46 16 77 22 40 9 54 16 52 26 -20 84 -47 177 -56 187 -15 16 -74 23 -111 14z"/>
<path d="M6385 2885 c-16 -15 -25 -36 -25 -55 0 -23 -4 -30 -20 -30 -16 0 -20
-7 -20 -35 0 -28 4 -35 19 -35 25 0 31 -19 31 -101 0 -76 1 -76 69 -63 l32 7
-3 83 c-3 81 -2 84 20 84 19 0 22 5 22 35 0 31 -3 35 -26 35 -19 0 -25 4 -22
18 2 10 12 17 26 16 18 0 22 5 22 33 l0 33 -50 0 c-41 0 -56 -5 -75 -25z"/>
<path d="M6016 2733 c-36 -92 -66 -170 -66 -173 0 -3 24 -3 54 -2 50 3 56 6
65 33 9 28 13 29 70 29 57 0 59 -1 70 -30 9 -28 13 -30 65 -30 38 0 56 4 56
13 -1 6 -29 82 -65 167 l-63 155 -60 3 -60 3 -66 -168z"/>
<path d="M6914 2866 c-47 -21 -74 -61 -74 -113 0 -112 90 -164 195 -113 44 21
65 53 65 96 0 19 -4 24 -17 20 -10 -2 -32 -7 -50 -11 -22 -4 -33 -13 -35 -28
-5 -32 -36 -34 -48 -2 -23 62 2 130 32 86 12 -16 20 -18 56 -11 53 9 55 12 41
43 -20 44 -102 60 -165 33z"/>
<path d="M5285 2756 c-10 -64 -16 -118 -14 -120 2 -2 25 -7 50 -11 l45 -7 12
77 c14 89 17 95 42 95 29 0 32 -15 19 -95 -6 -42 -9 -78 -6 -82 3 -3 24 -9 46
-13 47 -8 43 -14 61 107 11 73 10 86 -4 108 -19 28 -51 39 -101 33 -19 -2 -36
0 -38 5 -1 5 -23 11 -49 14 l-45 5 -18 -116z"/>
<path d="M6743 2843 c-28 -4 -32 -8 -36 -41 l-4 -37 -1 38 c-2 42 -1 41 -39
26 -15 -6 -51 -11 -80 -12 -28 -2 -54 -5 -57 -8 -3 -3 0 -58 6 -123 11 -111
13 -117 32 -112 12 3 34 6 50 6 l29 0 -7 69 c-7 76 -2 85 52 100 l30 9 7 -70
c3 -39 8 -75 11 -82 6 -15 100 -6 98 9 -1 6 -7 61 -14 123 -11 91 -16 112 -29
110 -9 0 -30 -3 -48 -5z"/>
<path d="M5599 2792 c-27 -24 -33 -37 -37 -85 -3 -43 0 -63 13 -83 39 -60 167
-72 212 -20 28 32 29 43 6 49 -14 4 -12 5 5 6 25 1 27 14 12 76 -14 61 -48 85
-120 85 -51 0 -64 -4 -91 -28z"/>
<path d="M4259 1889 c-121 -13 -244 -102 -297 -217 -24 -51 -27 -69 -27 -167
0 -101 2 -115 29 -170 38 -76 105 -143 180 -180 48 -23 76 -30 146 -33 107 -5
174 12 250 66 l55 38 55 -38 c69 -49 134 -68 231 -68 92 0 165 24 231 74 l43
34 47 -35 c137 -100 340 -99 473 2 l43 34 45 -35 c130 -101 339 -100 473 3
l46 35 27 -25 c14 -14 51 -37 81 -53 46 -23 71 -28 150 -32 110 -5 179 15 256
74 l45 35 31 -26 c17 -14 54 -38 82 -53 47 -25 60 -27 166 -27 106 0 119 2
166 27 28 15 65 39 82 53 l31 26 45 -35 c77 -59 146 -79 256 -74 82 4 103 9
155 35 74 38 147 115 183 191 24 50 27 70 27 157 0 88 -3 107 -27 158 -34 73
-113 156 -180 190 -133 67 -314 47 -427 -49 l-32 -27 -27 26 c-124 117 -379
117 -504 0 l-27 -26 -32 27 c-136 115 -365 118 -492 7 l-36 -32 -45 35 c-134
102 -336 105 -466 7 l-52 -39 -44 33 c-131 100 -330 103 -464 7 l-54 -39 -43
33 c-134 102 -330 103 -471 1 l-48 -34 -30 24 c-76 64 -191 95 -305 82z m167
-80 c32 -12 72 -36 91 -53 l33 -31 -27 -55 c-26 -50 -28 -65 -28 -165 0 -100
3 -115 27 -165 l27 -55 -21 -22 c-12 -13 -47 -36 -77 -51 -47 -23 -69 -27
-136 -27 -67 0 -89 4 -136 28 -66 32 -132 99 -162 165 -33 72 -31 189 5 262
76 155 248 227 404 169z m589 -12 c28 -15 61 -36 74 -47 l23 -20 -28 -58 c-26
-51 -29 -67 -29 -162 0 -94 3 -111 28 -164 l27 -59 -26 -28 c-46 -48 -118 -73
-209 -74 -88 0 -143 19 -202 69 l-32 27 26 55 c48 106 48 232 -1 339 l-25 55
37 30 c91 75 235 91 337 37z m560 0 c28 -14 61 -35 74 -46 l25 -19 -30 -63
c-26 -57 -29 -74 -29 -164 0 -89 3 -107 29 -162 l29 -63 -24 -20 c-13 -12 -49
-33 -79 -48 -46 -23 -68 -27 -135 -27 -88 1 -144 20 -202 69 l-32 27 25 54
c51 110 51 230 0 341 l-25 54 37 30 c91 75 235 91 337 37z m560 0 c28 -14 61
-35 74 -46 l25 -19 -30 -63 c-26 -57 -29 -74 -29 -164 0 -92 3 -106 31 -163
l31 -62 -31 -24 c-126 -96 -278 -100 -399 -11 l-47 35 24 48 c38 75 51 161 37
239 -7 36 -23 87 -36 113 l-24 47 22 20 c94 86 244 107 352 50z m527 15 c26
-9 67 -31 91 -48 l45 -32 -32 -63 c-29 -58 -31 -71 -31 -164 0 -91 3 -105 31
-163 l31 -63 -31 -23 c-127 -95 -279 -100 -398 -11 l-47 35 28 60 c51 108 50
234 -3 341 l-25 49 47 35 c85 63 199 81 294 47z m554 3 c27 -8 70 -30 95 -49
l47 -35 -24 -48 c-55 -110 -55 -249 0 -354 l25 -49 -32 -24 c-76 -56 -117 -71
-207 -71 -89 0 -131 15 -206 71 l-31 23 23 48 c55 110 55 246 1 355 l-25 49
47 35 c83 61 188 79 287 49z m596 -13 c72 -36 124 -87 160 -159 27 -56 32 -77
32 -138 0 -127 -72 -237 -193 -297 -37 -18 -63 -23 -131 -23 -90 0 -131 14
-207 71 l-32 24 19 33 c27 48 50 134 50 192 0 58 -23 144 -51 193 l-19 33 46
32 c25 18 66 40 92 50 63 23 172 18 234 -11z m-3174 -282 c3 -50 -1 -79 -19
-125 l-22 -60 -21 45 c-28 61 -28 176 -2 245 l20 50 20 -45 c11 -25 22 -74 24
-110z m560 10 c4 -68 -8 -132 -32 -165 -13 -18 -15 -17 -31 20 -25 57 -25 176
-1 239 l20 48 19 -38 c11 -22 22 -67 25 -104z m553 55 c15 -54 6 -162 -16
-205 l-18 -35 -20 45 c-27 60 -28 159 -3 224 17 46 20 48 33 30 7 -10 18 -37
24 -59z m553 28 c9 -26 16 -74 16 -108 0 -61 -24 -155 -40 -155 -17 0 -45 97
-45 155 0 58 28 155 45 155 4 0 15 -21 24 -47z m561 -3 c9 -27 16 -74 16 -105
0 -56 -26 -155 -41 -155 -18 0 -43 88 -43 155 0 67 25 155 43 155 5 0 16 -22
25 -50z m554 23 c21 -53 30 -127 20 -178 -11 -58 -28 -105 -39 -105 -16 0 -40
95 -40 155 0 60 24 155 40 155 4 0 13 -12 19 -27z"/>
<path d="M10152 1251 c-103 -35 -162 -121 -162 -233 0 -108 44 -182 135 -224
130 -61 288 -3 343 126 21 52 19 146 -5 200 -27 61 -90 115 -154 134 -67 20
-92 20 -157 -3z m173 -40 c164 -74 167 -302 6 -383 -70 -36 -121 -36 -189 -2
-204 102 -135 404 93 404 28 0 68 -9 90 -19z"/>
<path d="M10216 1083 c-12 -73 -7 -143 9 -143 12 0 15 13 16 58 l1 57 20 -57
c11 -32 25 -58 32 -58 8 0 23 24 34 53 18 46 21 49 21 22 2 -47 12 -75 28 -75
12 0 14 8 9 38 -3 20 -6 61 -6 90 0 44 -3 52 -19 52 -14 0 -25 -16 -42 -62
l-23 -62 -20 62 c-24 74 -50 85 -60 25z"/>
</g>
</svg>
